<svg xmlns="http://www.w3.org/2000/svg" width="25.961" height="25.955" viewBox="0 0 25.961 25.955">
  <path id="instagram" d="M12.978,8.561a6.654,6.654,0,1,0,6.654,6.654A6.644,6.644,0,0,0,12.978,8.561Zm0,10.981A4.326,4.326,0,1,1,17.3,15.215,4.334,4.334,0,0,1,12.978,19.541ZM21.457,8.288A1.552,1.552,0,1,1,19.9,6.736,1.549,1.549,0,0,1,21.457,8.288Zm4.407,1.575a7.681,7.681,0,0,0-2.1-5.438,7.732,7.732,0,0,0-5.438-2.1c-2.143-.122-8.566-.122-10.709,0A7.721,7.721,0,0,0,2.182,4.42a7.706,7.706,0,0,0-2.1,5.438C-.036,12-.036,18.424.086,20.566A7.681,7.681,0,0,0,2.182,26a7.741,7.741,0,0,0,5.438,2.1c2.143.122,8.566.122,10.709,0A7.681,7.681,0,0,0,23.768,26a7.732,7.732,0,0,0,2.1-5.438c.122-2.143.122-8.56,0-10.7Zm-2.768,13a4.38,4.38,0,0,1-2.467,2.467c-1.709.678-5.763.521-7.651.521S7.03,26,5.327,25.333A4.38,4.38,0,0,1,2.86,22.866c-.678-1.709-.521-5.763-.521-7.651s-.151-5.948.521-7.651A4.38,4.38,0,0,1,5.327,5.1c1.709-.678,5.763-.521,7.651-.521s5.948-.151,7.651.521A4.38,4.38,0,0,1,23.1,7.564c.678,1.709.521,5.763.521,7.651S23.773,21.163,23.1,22.866Z" transform="translate(0.005 -2.238)" fill="#fff"/>
</svg>
