<svg xmlns="http://www.w3.org/2000/svg" width="25.727" height="25.727" viewBox="0 0 25.727 25.727">
  <path id="linkedin" d="M23.89,2.25H1.832A1.846,1.846,0,0,0,0,4.1V26.123a1.846,1.846,0,0,0,1.832,1.855H23.89a1.85,1.85,0,0,0,1.838-1.855V4.1A1.85,1.85,0,0,0,23.89,2.25ZM7.776,24.3H3.962V12.024H7.781V24.3ZM5.869,10.347A2.211,2.211,0,1,1,8.08,8.136a2.212,2.212,0,0,1-2.211,2.211ZM22.069,24.3H18.256V18.33c0-1.424-.029-3.256-1.981-3.256-1.987,0-2.291,1.551-2.291,3.153V24.3H10.17V12.024h3.658V13.7h.052a4.016,4.016,0,0,1,3.612-1.981c3.859,0,4.577,2.544,4.577,5.852Z" transform="translate(0 -2.25)" fill="#fff"/>
</svg>
