<svg xmlns="http://www.w3.org/2000/svg" width="32.504" height="26.399" viewBox="0 0 32.504 26.399">
  <path id="twitter" d="M29.163,9.96c.021.289.021.578.021.866,0,8.807-6.7,18.954-18.954,18.954A18.825,18.825,0,0,1,0,26.789a13.781,13.781,0,0,0,1.609.082,13.341,13.341,0,0,0,8.27-2.846,6.673,6.673,0,0,1-6.229-4.62,8.4,8.4,0,0,0,1.258.1,7.046,7.046,0,0,0,1.753-.227A6.663,6.663,0,0,1,1.32,12.744v-.082a6.709,6.709,0,0,0,3.011.846A6.672,6.672,0,0,1,2.269,4.6,18.936,18.936,0,0,0,16,11.569a7.52,7.52,0,0,1-.165-1.526A6.668,6.668,0,0,1,27.368,5.484,13.116,13.116,0,0,0,31.6,3.876a6.644,6.644,0,0,1-2.929,3.671A13.355,13.355,0,0,0,32.5,6.516,14.32,14.32,0,0,1,29.163,9.96Z" transform="translate(0 -3.381)" fill="#fff"/>
</svg>
